<?xml version="1.0" encoding="utf-8"?>
<!-- Generator: Adobe Illustrator 24.0.3, SVG Export Plug-In . SVG Version: 6.00 Build 0)  -->
<svg version="1.1" xmlns="http://www.w3.org/2000/svg" xmlns:xlink="http://www.w3.org/1999/xlink" x="0px" y="0px"
	 viewBox="0 0 22 22" style="enable-background:new 0 0 22 22;" xml:space="preserve">
<style type="text/css">
	.st0{display:none;}
	.st1{display:inline;}
	.st2{fill:#D3A5A5;}
	.st3{display:inline;fill:#FFFFFF;}
	.st4{fill:#FFFFFF;}
</style>
<g id="Layer_1" class="st0">
	<g class="st1">
		<rect x="-9.5" y="-8.5" class="st2" width="41" height="39"/>
		<path d="M31-8v38H-9V-8H31 M32-9h-42v40h42V-9L32-9z"/>
	</g>
</g>
<g id="Layer_2" class="st0">
	<path class="st3" d="M16.4,7.2c-0.1-0.2-0.2-0.5-0.3-0.7C15,3.9,12.7,3,10.8,3C8.2,3,5.4,4.7,5,8.2V9c0,0,0,0.3,0,0.4
		c0.2,1.7,1.5,3.5,2.5,5.2c1.1,1.8,2.2,3.6,3.3,5.4c0.7-1.2,1.4-2.3,2-3.5c0.2-0.3,0.4-0.7,0.6-1c0.1-0.2,0.4-0.4,0.5-0.6
		c1.1-2,2.8-3.9,2.8-5.9V8.2C16.7,8,16.4,7.2,16.4,7.2z M10.8,10.8c-0.8,0-1.6-0.4-2-1.4C8.8,9.3,8.8,8.9,8.8,8.9V8.4
		c0-1.3,1.1-1.9,2.1-1.9c1.2,0,2.1,1,2.1,2.2C13,9.9,12,10.8,10.8,10.8z"/>
</g>
<g id="Layer_3">
	<path class="st4" d="M15.8,14.5c-0.6-0.6-1.4-0.6-2,0c-0.5,0.5-0.9,0.9-1.4,1.4c-0.1,0.1-0.2,0.2-0.4,0.1c-0.3-0.2-0.6-0.3-0.9-0.5
		c-1.4-0.9-2.5-2-3.5-3.2c-0.5-0.6-0.9-1.3-1.3-2C6.2,10.1,6.3,10,6.4,9.9C6.8,9.5,7.3,9,7.8,8.5c0.6-0.6,0.6-1.4,0-2.1
		C7.4,6.1,7,5.7,6.7,5.4C6.3,5,5.9,4.6,5.5,4.2c-0.6-0.6-1.4-0.6-2,0C3,4.7,2.6,5.2,2.1,5.6C1.6,6.1,1.4,6.6,1.4,7.2
		c-0.1,1,0.2,1.9,0.5,2.8c0.7,1.9,1.8,3.5,3,5.1c1.7,2.1,3.8,3.7,6.2,4.9c1.1,0.5,2.2,0.9,3.5,1c0.8,0,1.6-0.2,2.2-0.8
		c0.4-0.5,0.9-0.9,1.3-1.3c0.6-0.6,0.6-1.4,0-2C17.3,16,16.6,15.3,15.8,14.5z"/>
	<path class="st4" d="M15.1,11.4l1.5-0.2c-0.2-1.3-0.9-2.6-1.8-3.5c-1-1-2.3-1.7-3.7-1.9l-0.2,1.5c1.1,0.2,2.1,0.6,2.9,1.4
		C14.4,9.4,14.9,10.3,15.1,11.4z"/>
	<path class="st4" d="M17.3,5c-1.7-1.7-3.8-2.7-6.2-3.1L11,3.4c2,0.3,3.9,1.2,5.3,2.7c1.4,1.4,2.3,3.1,2.6,5l1.5-0.2
		C20,8.6,18.9,6.6,17.3,5z"/>
</g>
</svg>
